<?xml version="1.0" encoding="utf-8"?>
<!-- Svg Vector Icons : http://www.onlinewebfonts.com/icon -->
<!DOCTYPE svg PUBLIC "-//W3C//DTD SVG 1.1//EN" "http://www.w3.org/Graphics/SVG/1.1/DTD/svg11.dtd">
<svg version="1.1" xmlns="http://www.w3.org/2000/svg" xmlns:xlink="http://www.w3.org/1999/xlink" x="0px" y="0px" viewBox="0 0 1000 1000" enable-background="new 0 0 1000 1000" xml:space="preserve">
    <metadata> Svg Vector Icons : http://www.onlinewebfonts.com/icon </metadata>
    <g>
        <g transform="translate(0.000000,511.000000) scale(0.100000,-0.100000)">
            <path d="M1599.6,4704.7c-94-42.9-206.4-161.4-228.9-243.2c-10.2-30.7-16.3-247.3-16.3-484.3c0-406.6,2-433.2,47-515c24.5-49,83.8-112.4,130.8-143c73.6-49,106.3-57.2,230.9-57.2c124.6,0,159.4,8.2,228.9,55.2c51.1,32.7,100.1,89.9,126.7,147.1c42.9,85.8,45,112.4,38.8,559.9l-6.1,470l-63.3,79.7C1965.4,4729.2,1767.2,4782.3,1599.6,4704.7z" />
            <path d="M6616.2,4698.5c-49.1-26.6-118.5-81.7-151.2-124.6l-63.3-79.7l-6.1-470c-6.1-447.5-4.1-474.1,38.8-559.9c26.6-57.2,75.6-114.4,126.7-147.1c69.5-47,104.2-55.2,228.9-55.2s157.3,8.2,230.9,57.2c47,30.7,106.3,94,130.8,143c45,81.7,47,108.3,47,515c0,237-6.1,453.6-16.3,484.3c-22.5,81.7-134.9,200.3-228.9,243.2C6843,4755.7,6724.5,4753.7,6616.2,4698.5z" />
            <path d="M432.8,4130.4c-173.7-12.3-243.2-53.1-296.3-173.7c-38.8-85.8-38.8-179.8-34.7-3745.6c6.1-3657.7,6.1-3659.8,49-3717c22.5-30.7,81.7-77.6,130.8-102.2l89.9-47h1886.1c1038.1,0,1886.1,4.1,1886.1,10.2c0,6.1-42.9,65.4-96,128.7c-55.2,63.4-149.2,196.2-210.5,294.3L3724.8-3044l-1399.7,2c-1565.3,0-1504-6.1-1579.6,143c-32.7,67.4-34.7,230.9-30.7,2752.5l6.1,2681l42.9,57.2c22.5,30.7,65.4,69.5,92,81.7c38.8,20.4,788.8,26.6,3433,26.6h3383.9l55.2-42.9c94-73.6,104.2-114.4,114.4-443.4l10.2-312.6l169.6-69.5c94-38.8,228.9-102.2,302.4-141l132.8-73.6l-6.1,1150.4c-6.1,1113.7-8.2,1150.5-47,1219.9c-79.7,134.9-141,153.3-510.9,153.3c-179.8,2-361.7-2.1-406.6-8.2l-79.7-8.2l14.3-165.5c16.3-204.3-14.3-449.6-71.5-584.4c-87.9-202.3-296.3-331-539.5-335.1c-275.9-2.1-453.6,100.1-566,331c-65.4,132.8-67.4,143-75.6,447.5l-6.1,312.6l-89.9,2.1c-49.1,0-848,0-1775.7,0c-927.7,0-1736.9,0-1798.2,0l-112.4-2.1v-273.8c0-359.6-40.9-504.7-183.9-645.7c-75.6-77.6-126.7-108.3-235-141c-161.4-51.1-226.8-53.1-376-14.3c-212.5,57.2-361.7,204.3-425,418.9c-24.5,83.8-32.7,190-30.7,386.2c2,196.2-4.1,269.7-22.5,271.8C1015.2,4140.7,551.3,4138.6,432.8,4130.4z" />
            <path d="M1021.3,2422.1c-45-30.7-45-36.8-45-519c0-482.2,0-488.4,45-519c38.8-26.6,122.6-32.7,500.6-32.7c429.1,0,457.7,2,496.5,40.9c38.8,38.8,40.9,67.4,40.9,510.9s-2,472-40.9,510.9c-38.8,38.8-67.4,40.9-496.5,40.9C1143.9,2454.8,1060.1,2448.7,1021.3,2422.1z" />
            <path d="M2396.5,2403.8l-51.1-49v-459.8v-459.8l53.1-40.9c51.1-40.9,79.7-42.9,502.7-42.9h447.5l49,51.1l51.1,49v451.6v451.6l-51.1,49l-49,51.1h-451.6h-451.6L2396.5,2403.8z" />
            <path d="M3779.9,2422.1c-45-30.7-45-38.8-45-510.9c0-451.6,2-480.2,40.9-519c36.8-36.8,67.4-40.9,396.4-40.9h355.6l145.1,108.3l145.1,106.3v404.6c0,376-2,404.6-40.9,443.4c-38.8,38.8-67.4,40.9-496.5,40.9C3902.5,2454.8,3818.8,2448.7,3779.9,2422.1z" />
            <path d="M5155.1,2403.8c-49-47-51.1-57.2-51.1-357.6c0-167.6,4.1-306.5,8.2-306.5s85.8,36.8,179.8,81.7c220.7,102.2,506.8,196.2,735.6,241.1l179.8,34.7V2226c0,108.3-8.2,136.9-51.1,177.8l-49,51.1h-451.6h-451.6L5155.1,2403.8z" />
            <path d="M6534.5,2414c-30.7-30.7-40.9-67.4-40.9-161.4V2134l333.1-12.3c202.3-8.2,410.7-28.6,535.4-55.2c112.4-22.5,206.4-40.9,210.5-40.9c2.1,0,4.1,81.7,4.1,181.9c0,257.5,22.5,247.3-545.6,247.3C6601.9,2454.8,6573.3,2452.8,6534.5,2414z" />
            <path d="M6217.7,1813.2c-492.5-79.7-966.5-273.8-1367.1-557.9C4632,1098,4266.3,732.2,4108.9,507.5c-672.3-954.3-774.5-2178.3-271.8-3234.7c363.7-760.2,1050.3-1367.1,1847.3-1632.7c376-124.6,588.5-159.4,1013.5-161.4c431.2-2,682.5,38.8,1050.3,165.5c1640.9,568.1,2525.7,2331.5,2000.5,3980.6C9587.3,127.4,9340.1,532,8958,912.1c-449.6,449.6-964.5,731.5-1589.8,870.5C7125,1837.7,6469.1,1854.1,6217.7,1813.2z M7300.8,775.1c106.3-83.8,112.4-124.6,112.4-803.1v-623.2h655.9h656l69.5-69.5l69.5-69.5v-543.5c0-478.2-4.1-551.7-34.7-598.7c-67.4-102.2-116.5-108.3-792.9-108.3h-623.2l-2-617.1c0-670.2-8.2-727.5-106.3-801c-55.2-40.9-87.9-42.9-521.1-49c-557.8-8.2-617.1-2.1-698.8,79.7l-61.3,63.4v662.1v662.1h-635.5c-545.6,0-645.7,4.1-705,32.7c-124.7,59.2-130.8,87.9-130.8,684.6v533.3l69.5,69.5l69.5,69.5h666.2h666.1V10.9c0,643.7,2.1,662.1,42.9,715.2c24.5,30.7,63.4,65.4,87.9,73.6c22.5,10.2,277.9,18.4,566,18.4C7227.2,820.1,7245.6,818.1,7300.8,775.1z" />
            <path d="M1011.1,1028.5c-30.6-32.7-34.7-100.1-34.7-510.9c0-400.5,4.1-476.1,32.7-502.7c26.6-28.6,102.2-32.7,506.8-32.7c435.3,0,478.2,4.1,508.8,36.8c30.7,32.7,34.7,100.1,34.7,508.8c0,429.1-4.1,472-36.8,502.7c-32.7,30.7-100.1,34.7-508.8,34.7C1084.6,1065.3,1041.7,1061.2,1011.1,1028.5z" />
            <path d="M2386.3,1024.4c-38.8-38.8-40.9-67.4-40.9-496.6c0-378,6.1-461.8,32.7-500.6c30.6-45,36.8-45,519-45h490.4l30.7,49.1c28.6,42.9,32.7,118.5,26.6,512.9c-6.1,431.2-8.2,465.9-44.9,492.5c-32.7,22.5-136.9,28.6-506.8,28.6C2453.7,1065.3,2425.1,1063.3,2386.3,1024.4z" />
            <path d="M3767.7,1026.5c-28.6-30.6-32.7-77.6-28.6-296.3l6.1-259.5l106.3,153.3c59.3,83.8,163.5,216.6,230.9,296.3l124.7,145.1h-202.3C3833.1,1065.3,3798.3,1059.2,3767.7,1026.5z" />
            <path d="M1021.3-336.5c-45-30.6-45-36.8-45-519c0-482.2,0-488.4,45-519c38.8-26.6,122.6-32.7,500.6-32.7c429.1,0,457.7,2.1,496.5,40.9c38.8,38.8,40.9,67.4,40.9,506.8c0,255.4-8.2,474.1-16.3,486.3c-38.8,59.2-112.4,69.5-539.5,69.5C1141.9-303.8,1060.1-309.9,1021.3-336.5z" />
            <path d="M2396.5-354.9l-51.1-49v-457.7c0-431.2,2-457.7,40.9-500.6c40.9-42.9,57.2-45,449.6-45h408.7v159.4c0,210.5,34.7,476.1,92,715.2c34.7,147.1,40.9,202.3,24.5,212.5c-14.3,8.2-224.8,16.3-470,16.3h-445.5L2396.5-354.9z" />
            <path d="M1011.1-1730.1c-30.6-32.7-34.7-100.1-34.7-506.8c0-373.9,6.1-478.2,28.6-510.9c28.6-36.8,57.2-38.8,498.6-38.8c433.2,0,474.1,2.1,512.9,38.8c40.9,36.8,42.9,57.2,42.9,515c0,467.9,0,476.1-45,506.8c-38.8,26.6-122.6,32.7-508.8,32.7C1084.6-1693.3,1041.7-1697.4,1011.1-1730.1z" />
            <path d="M2386.3-1734.2c-38.8-38.8-40.9-67.4-40.9-498.6c0-418.9,4.1-461.8,38.8-504.7c38.8-49.1,38.8-49.1,512.9-49.1c474.1,0,474.1,0,512.9,49.1c55.2,67.4,49,173.7-20.4,408.7c-32.7,110.3-77.7,298.3-96,418.9l-36.8,216.6H2842C2453.7-1693.3,2425.1-1695.4,2386.3-1734.2z" />
        </g>
    </g>
</svg>